<svg width="64" height="64" viewBox="0 0 64 64" fill="none" xmlns="http://www.w3.org/2000/svg">
<g clip-path="url(#clip0)">
<path d="M53.6914 -0.0775299H10.4267C4.72437 -0.0775299 0.101746 4.53777 0.101746 10.231V53.6913C0.101746 59.3846 4.72437 63.9998 10.4267 63.9998H53.6914C59.3937 63.9998 64.0163 59.3846 64.0163 53.6913V10.231C64.0163 4.53777 59.3937 -0.0775299 53.6914 -0.0775299Z" fill="url(#paint0_linear)"/>
<path d="M32.5413 27.5078C34.1739 27.5078 35.4111 27.1588 36.2544 26.4445C37.0976 25.7302 37.519 24.6899 37.519 23.3076C37.519 21.9428 37.0976 20.9059 36.2544 20.1971C35.4056 19.4703 34.1734 19.1069 32.5413 19.1069H26.8097V27.5082H32.5413V27.5078ZM32.8908 44.8687C34.9713 44.8687 36.532 44.4351 37.5725 43.5662C38.6309 42.6979 39.1601 41.3864 39.1601 39.6317C39.1601 37.912 38.6399 36.6274 37.5994 35.777C36.5589 34.9087 34.9897 34.4745 32.8913 34.4745H26.8102V44.8697H32.8913L32.8908 44.8687ZM42.5237 30.5933C44.748 31.2314 46.4699 32.4103 47.6897 34.129C48.9094 35.8478 49.519 37.9573 49.5195 40.4567C49.5195 44.285 48.2099 47.1388 45.5912 49.0176C42.9726 50.8963 38.9909 51.8355 33.6452 51.8355H16.4523V12.1422H32.0046C37.5829 12.1422 41.619 12.9746 44.1119 14.641C46.6232 16.307 47.8789 18.9748 47.8789 22.6436C47.8789 24.5757 47.4216 26.2237 46.5069 27.5885C45.5922 28.9354 44.2602 29.9314 42.5247 30.5928" fill="white"/>
</g>
<defs>
<linearGradient id="paint0_linear" x1="3.78885" y1="60.677" x2="59.9921" y2="3.40137" gradientUnits="userSpaceOnUse">
<stop stop-color="#5E5E5E"/>
<stop offset="1" stop-color="#C4C4C4"/>
</linearGradient>
<clipPath id="clip0">
<rect width="64" height="64" fill="white"/>
</clipPath>
</defs>
</svg>
