<svg width="64" height="64" viewBox="0 0 64 64" fill="none" xmlns="http://www.w3.org/2000/svg">
<path d="M21.3417 64C24.1706 64 26.8838 62.8762 28.8841 60.8758C30.8845 58.8754 32.0083 56.1623 32.0083 53.3333V42.6667H21.3417C18.5127 42.6667 15.7996 43.7905 13.7992 45.7908C11.7988 47.7912 10.675 50.5043 10.675 53.3333C10.675 56.1623 11.7988 58.8754 13.7992 60.8758C15.7996 62.8762 18.5127 64 21.3417 64Z" fill="#A8A8A8"/>
<path d="M10.675 32C10.675 29.171 11.7988 26.4579 13.7992 24.4575C15.7996 22.4571 18.5127 21.3333 21.3417 21.3333H32.0083V42.6667H21.3417C18.5127 42.6667 15.7996 41.5429 13.7992 39.5425C11.7988 37.5421 10.675 34.829 10.675 32Z" fill="#7F7F7F"/>
<path d="M10.675 10.6667C10.675 7.83913 11.7977 5.12729 13.7962 3.12714C15.7948 1.12699 18.5058 0.00220901 21.3333 0L32 0V21.3333H21.3417C18.5127 21.3333 15.7996 20.2095 13.7992 18.2091C11.7988 16.2088 10.675 13.4956 10.675 10.6667Z" fill="#5E5E5E"/>
<path d="M32.0083 0H42.675C45.504 0 48.2171 1.12381 50.2175 3.12419C52.2179 5.12458 53.3417 7.83769 53.3417 10.6667C53.3417 13.4956 52.2179 16.2088 50.2175 18.2091C48.2171 20.2095 45.504 21.3333 42.675 21.3333H32.0083V0Z" fill="#707070"/>
<path d="M53.3417 32C53.3417 34.829 52.2179 37.5421 50.2175 39.5425C48.2171 41.5429 45.504 42.6667 42.675 42.6667C39.846 42.6667 37.1329 41.5429 35.1325 39.5425C33.1321 37.5421 32.0083 34.829 32.0083 32C32.0083 29.171 33.1321 26.4579 35.1325 24.4575C37.1329 22.4571 39.846 21.3333 42.675 21.3333C45.504 21.3333 48.2171 22.4571 50.2175 24.4575C52.2179 26.4579 53.3417 29.171 53.3417 32Z" fill="#8C8C8C"/>
</svg>
