<svg width="64" height="64" viewBox="0 0 64 64" fill="none" xmlns="http://www.w3.org/2000/svg">
<g clip-path="url(#clip0)">
<path d="M62.792 29.15L34.85 1.208C34.4674 0.825212 34.0131 0.521553 33.5131 0.314376C33.0131 0.107199 32.4772 0.000564575 31.936 0.000564575C31.3948 0.000564575 30.8589 0.107199 30.3589 0.314376C29.8589 0.521553 29.4046 0.825212 29.022 1.208L23.222 7.008L30.582 14.368C32.294 13.768 34.254 14.178 35.618 15.542C36.2673 16.1925 36.7206 17.0124 36.926 17.9082C37.1315 18.8041 37.0809 19.7396 36.78 20.608L43.874 27.702C45.59 27.11 47.57 27.492 48.94 28.866C49.3954 29.3216 49.7567 29.8624 50.0031 30.4575C50.2495 31.0527 50.3763 31.6905 50.3762 32.3347C50.3761 32.9789 50.2491 33.6167 50.0025 34.2118C49.756 34.8069 49.3946 35.3476 48.939 35.803C48.4834 36.2584 47.9426 36.6197 47.3475 36.8661C46.7523 37.1125 46.1145 37.2393 45.4703 37.2392C44.8261 37.2391 44.1883 37.1121 43.5932 36.8655C42.9981 36.619 42.4574 36.2576 42.002 35.802C40.562 34.362 40.206 32.242 40.934 30.468L34.318 23.852V41.262C34.7983 41.4997 35.2372 41.813 35.618 42.19C36.0734 42.6454 36.4347 43.1861 36.6812 43.7811C36.9276 44.3762 37.0545 45.0139 37.0545 45.658C37.0545 46.3021 36.9276 46.9398 36.6812 47.5349C36.4347 48.1299 36.0734 48.6706 35.618 49.126C35.1626 49.5814 34.6219 49.9427 34.0269 50.1892C33.4318 50.4356 32.7941 50.5625 32.15 50.5625C31.5059 50.5625 30.8682 50.4356 30.2731 50.1892C29.6781 49.9427 29.1374 49.5814 28.682 49.126C28.226 48.6709 27.8643 48.1303 27.6175 47.5352C27.3707 46.9401 27.2436 46.3022 27.2436 45.658C27.2436 45.0138 27.3707 44.3759 27.6175 43.7808C27.8643 43.1857 28.226 42.6451 28.682 42.19C29.156 41.718 29.682 41.36 30.288 41.12V23.548C29.704 23.308 29.156 22.954 28.682 22.478C27.9933 21.7902 27.5251 20.9129 27.3371 19.9579C27.149 19.0029 27.2496 18.0136 27.626 17.116L20.366 9.86L1.206 29C0.822907 29.3826 0.518994 29.837 0.311641 30.3372C0.104287 30.8374 -0.00244141 31.3736 -0.00244141 31.915C-0.00244141 32.4565 0.104287 32.9926 0.311641 33.4928C0.518994 33.993 0.822907 34.4474 1.206 34.83L29.15 62.77C29.5326 63.1528 29.9869 63.4565 30.4869 63.6636C30.9869 63.8708 31.5228 63.9774 32.064 63.9774C32.6052 63.9774 33.1411 63.8708 33.6411 63.6636C34.1411 63.4565 34.5954 63.1528 34.978 62.77L62.792 35C63.1751 34.6174 63.479 34.163 63.6864 33.6628C63.8937 33.1626 64.0004 32.6265 64.0004 32.085C64.0004 31.5435 63.8937 31.0074 63.6864 30.5072C63.479 30.007 63.1751 29.5526 62.792 29.17" fill="#B2B2B2"/>
</g>
<defs>
<clipPath id="clip0">
<rect width="64" height="64" fill="white"/>
</clipPath>
</defs>
</svg>
