<svg width="1776" height="2500" viewBox="0 0 1776 2500" fill="none" xmlns="http://www.w3.org/2000/svg">
<path d="M1776 489.9H0L166.5 2295.4L887.9 2500L1609.3 2295.4L1776 489.9Z" fill="#B2B2B2"/>
<path d="M887.9 637V2347L1472.4 2181.4L1614.6 637H887.9Z" fill="#E6E6E6"/>
<path d="M1352.9 858.5H454.2L391.6 1534.5L392.9 1530.3H1156.4L1131.5 1816.3L887.9 1886.4L640.7 1815.2L625.9 1642.1H401.5L433.5 1988L887.9 2117L1342.5 1988L1405.1 1309.1H594.8L605.2 1082.9H1167.4L1175.8 1212.5H1402.2L1352.9 858.5Z" fill="white"/>
<path d="M888.1 858.5H454.2L391.6 1534.5L392.9 1530.3H888.1V1309.8H626.4L636.8 1083.6H888.1V858.5ZM626.4 1642.1H401.5L433.5 1987.8L887.9 2116.6V1886.6L640.7 1815.2L626.4 1642.1Z" fill="#EBEBEB"/>
<path d="M715.2 223.6H557.1V337.1H828.3V0H715.2V223.6ZM1218.8 1.8H943.2V119.8C980 156.6 999.2 174.3 1053.4 227.6H943.2V335.2H1218.8V227.8L1108.6 120H1218.8V1.8Z" fill="#231F20"/>
</svg>
