<svg width="1939" height="2500" viewBox="0 0 1939 2500" fill="none" xmlns="http://www.w3.org/2000/svg">
<path d="M31.024 2465.13C31.024 2465.13 34.7884 1874.46 34.7884 1274.01C34.7884 110.993 -63.2145 24.3662 458.619 24.3662H1911.13V1701.93C1911.13 2254.16 2014.36 2470.5 1434 2470.5C853.645 2470.5 31.0316 2465.14 31.0316 2465.14L31.024 2465.13Z" fill="#5E5E5E"/>
<path d="M1228.58 243.761C1228.58 243.761 1321.65 262.379 1402.31 398.881C1482.98 535.391 1911.12 1596.44 1911.12 1596.44V733.942L1514 88.6411L1625.69 225.151L1836.66 51.3987L1563.64 32.7964L1228.58 243.761Z" fill="url(#paint0_linear)"/>
<path opacity="0.668" d="M403.32 38.9997C403.32 38.9997 1017.6 448.523 1315.44 529.188C1613.28 609.853 1917.32 696.957 1917.32 696.957L1216.16 2434.1L1520.21 2446.51L1917.32 1472.44L1904.91 32.7964L403.32 39.0072V38.9997Z" fill="url(#paint1_radial)"/>
<path d="M974.173 1869.45L1598.43 2469.48L421.929 2458.92C421.929 2458.92 384.702 2080.42 397.116 1881.86C409.523 1683.3 471.571 1683.3 471.571 1683.3L974.173 1869.45Z" fill="white" fill-opacity="0.44"/>
<path d="M1563.64 2471.33L986.58 1875.66L459.164 1677.1L49.6414 764.973L483.985 39.0072H205.738L74.4621 138.282L31.024 225.151V2471.33H1563.64Z" fill="black" fill-opacity="0.362"/>
<path opacity="0.5" d="M1917.32 1521.98C1917.32 1521.98 1334.06 1708.12 986.58 1881.86C639.105 2055.6 452.961 2477.53 452.961 2477.53C452.961 2477.53 1197.55 2440.31 1476.77 2452.71C1755.99 2465.13 1886.3 2465.13 1911.12 2074.21C1935.94 1683.31 1917.32 1521.98 1917.32 1521.98Z" fill="#5E5E5E"/>
<path d="M210.813 1892.55V2259.03H304.279V2163.57L389.353 2248.63H532.771L419.021 2134.88C419.021 2134.88 500.86 2133.57 507.056 2015.2C507.056 1906.61 425.126 1892.55 330.501 1892.55H210.813ZM308.733 1991.96H389.353V2057.24H308.725V1991.95L308.733 1991.96ZM713.287 1894.03C662.115 1893.74 591.13 1898.49 591.13 1994.92V2249.63H687.08V2187.31H780.054V2248.14H876.496V1981.07C876.496 1897.3 783.432 1894.03 733.571 1894.03C727.337 1894.03 720.604 1894.08 713.287 1894.03ZM688.565 1986.02H778.569V2086.42H688.572V1986.02H688.565ZM972.621 1894.27H1071.9V2244.85H972.621V1894.27ZM1175.84 1898.93V2249.51H1414.73V2156.43H1273.56V1897.37L1175.84 1898.92V1898.93ZM1731.17 1895.83V1990.45H1571.4V2024.57H1639.65C1675.33 2024.57 1749.79 2023.03 1749.79 2134.72C1749.79 2246.4 1698.6 2252.61 1594.67 2252.61H1469.01V2167.29H1613.28C1656.72 2167.29 1659.11 2153.15 1659.11 2140.83C1659.11 2128.51 1636.9 2122.78 1591.74 2122.78C1546.58 2122.78 1462.81 2100.59 1462.81 2013.71C1462.81 1926.85 1506.25 1894.27 1593.12 1894.27C1679.98 1894.27 1731.17 1895.83 1731.17 1895.83Z" fill="white"/>
<path d="M297.833 1788.79H1123.09C1123.09 1788.79 940.044 1373.06 986.58 991.45C1033.12 609.853 1334.06 436.116 1504.69 417.498C1675.33 398.889 1768.41 504.375 1768.41 504.375L1805.63 448.522C1805.63 448.522 1560.54 200.33 1250.29 228.249C940.051 256.175 725.974 460.929 592.569 709.136C459.164 957.328 381.604 1131.07 328.857 1391.67C276.118 1652.28 297.833 1788.79 297.833 1788.79ZM133.405 1373.05L294.736 1385.48L266.809 1546.8L114.795 1528.18L133.405 1373.06V1373.05ZM387.808 1031.79L431.246 910.792L288.532 854.947L241.989 985.254L387.808 1031.79ZM589.471 616.057L673.234 516.789L564.65 445.432L477.774 541.61L589.471 616.064V616.057ZM809.745 231.354L884.199 321.321L986.58 262.378L912.125 178.608L809.745 231.354ZM1172.73 128.974L1191.35 218.94L1318.55 215.835L1306.14 135.177L1172.73 128.966V128.974Z" fill="white"/>
<path d="M1603.98 225.151L1600.87 280.996L1687.74 327.532L1706.36 299.606L1603.98 225.151ZM1585.36 464.034V510.578L1669.13 519.879V482.652L1585.36 464.034ZM1318.55 504.367L1358.88 578.829L1417.83 532.293L1405.42 482.652L1318.54 504.367H1318.55ZM1191.35 600.545L1253.4 693.617L1216.16 758.77L1126.2 659.495L1191.35 600.545ZM1067.25 858.053L1026.91 938.718L1132.4 1028.68L1157.22 926.304L1067.25 858.053ZM1023.81 1140.37L1017.61 1248.96L1147.91 1304.8L1141.7 1202.42L1023.81 1140.37H1023.81ZM1061.04 1525.08L1092.07 1636.77L1256.5 1646.08L1197.55 1525.08H1061.04Z" fill="white"/>
<path d="M54.7616 2465.28L54.807 2458.49L54.9282 2438.72L55.3524 2363.58C55.7917 2282.63 56.231 2192.29 56.64 2094.84C57.8216 1816.41 58.526 1536.75 58.526 1274.01C58.526 1138.63 57.3596 1020.41 54.8676 854.985C47.248 349.558 50.9139 253.289 93.1023 162.452C135.488 71.1977 215.047 48.0963 458.619 48.0963H1911.13L1887.39 24.3587V1701.92C1887.39 1753.4 1887.94 1797.82 1889.28 1872.65C1894.48 2161.05 1888.09 2243.06 1841.54 2319.06C1787.1 2407.96 1669.89 2446.75 1434 2446.75C1300.82 2446.75 1144.14 2446.45 968.765 2445.87C827.703 2445.42 678.173 2444.81 524.31 2444.07C363.15 2443.3 201.991 2442.43 40.8326 2441.45L31.1831 2441.39L54.7692 2465.28H54.7616ZM7.13491 2488.71L30.8725 2488.87C43.375 2488.94 55.8775 2489.02 68.38 2489.09C220.275 2490 372.171 2490.82 524.068 2491.55C677.961 2492.28 827.514 2492.9 968.606 2493.36C1144.03 2493.93 1300.75 2494.23 1433.99 2494.23C1684.76 2494.23 1816.67 2450.57 1882.03 2343.86C1935.58 2256.43 1942.15 2171.9 1936.75 1871.8C1935.41 1797.24 1934.86 1753.05 1934.86 1701.92V0.621094H458.619C197.46 0.621094 103.206 27.9792 50.0429 142.448C23.4649 199.672 10.6266 278.89 5.96848 401.282C2.3783 495.596 2.74944 547.578 7.40001 855.705C9.88436 1020.91 11.0508 1138.91 11.0508 1274.01C11.0508 1536.67 10.3388 1816.27 9.1648 2094.64C8.6809 2209.23 8.10778 2323.83 7.44546 2438.43L7.33184 2458.2L7.13491 2488.72V2488.71Z" fill="#5E5E5E"/>
<defs>
<linearGradient id="paint0_linear" x1="1468.86" y1="1050.4" x2="1937.89" y2="1003.59" gradientUnits="userSpaceOnUse">
<stop stop-color="white"/>
<stop offset="1" stop-color="#C4C4C4"/>
</linearGradient>
<radialGradient id="paint1_radial" cx="0" cy="0" r="1" gradientUnits="userSpaceOnUse" gradientTransform="translate(1160.32 1239.65) scale(764.889 1219.43)">
<stop stop-color="white"/>
<stop offset="1" stop-color="#828282"/>
</radialGradient>
</defs>
</svg>
